<svg version="1.2" xmlns="http://www.w3.org/2000/svg" viewBox="0 0 972 88" width="972" height="88"><style>.a{fill:#67c5f0}</style><path class="a" d="m594.9 2.4l-7.7 11.4 2.1 2.2 21.7-10.9-1.1-2.7zm-460.9 72.2c4.6 6.1 10.7 10.1 19.8 10.1 11.8 0 21.2-6.6 21.2-19.5 0-21.6-27.5-18.3-27.5-32.1 0-7.5 5.7-10.3 13.9-8.4l5.6 12.2h5v-14.5c-4.7-2.6-9.8-4.1-17-4.1-10.2 0-20.1 5.5-20.1 18.4 0 21.9 27.2 18.7 27.2 32.1 0 5.7-4.5 9-11.3 9-5.4 0-10.3-2.7-15.2-5.9zm331.4 0c4.6 6.1 10.7 10.1 19.8 10.1 11.8 0 21.2-6.6 21.2-19.5 0-21.6-27.5-18.3-27.5-32.1 0-7.5 5.7-10.3 13.9-8.4l5.6 12.2h5v-14.6c-4.7-2.5-9.8-4-17-4-10.2 0-20 5.5-20 18.3 0 21.9 27.1 18.8 27.1 32.2 0 5.7-4.5 9-11.3 9-5.4 0-10.3-2.7-15.2-6zm-417 1.4l-8 2.9v4.8h30.4v-4.8l-7.9-2.9v-61.4l7.9-2.9v-4.7h-30.4v4.7l8 2.9v25.7h-26v-25.7l7.9-2.9v-4.7h-30.4v4.7l8 2.9v61.4l-8 2.9v4.8h30.4v-4.8l-7.9-2.9v-27.7h26zm888.4-18.3v18.9l-7.7 2.3v4.8h29.1v-4.8l-7.8-2.3v-20.3l15.5-29.3 5.3-2.8v-4.8h-19.6v4.8l7 2.8-7.1 14.7-3.5 7.9h-0.5l-3.8-8-7.9-15.2 5.7-2.2v-4.8h-26.1v4.8l4.9 2.2zm-71.9 18.3l-5.4 3v4.7h20.5v-4.7l-8.1-3-0.4-29.4-0.1-10 0.5-0.1 4.9 8.3 25.5 39.5 6.4-0.8 0.4-56.4 5.4-3v-4.7h-20.4v4.7l8 3 0.4 22.7 0.2 9.8-0.5 0.2-5.1-8.4-20.5-32h-17.1v4.8l5.8 2.7zm-29.3 0.6l-6.3 2.3v4.8h26v-4.8l-6.2-2.3v-50.1l6.2-2.3v-4.8h-26v4.8l6.3 2.3zm-8.8-52.5v-4.7h-19.4v4.7l7.4 2.9-8.9 28.8-2.9 10.8h-0.5l-2.9-10.8-9.5-29.4 6.2-2.2v-4.8h-25.6v4.8l5.1 2.2 18.4 57.4h9.2l18.4-56.8zm-55.2 27.4c0-21.5-13.7-33.2-27.7-33.2-14 0-27.8 11.7-27.8 33.2 0 21.5 13.8 33.2 27.8 33.2 14 0 27.7-11.7 27.7-33.2zm-14.5 0c0 17.9-5.9 27.1-13.2 27.1-7.3 0-13.3-9.2-13.3-27.1 0-17.9 6-27.2 13.3-27.2 7.3 0 13.2 9.3 13.2 27.2zm-104.8 24.4l-8.1 3v4.7h26.7v-4.7l-9.9-3-0.3-39.2-0.2-9.9 0.5-0.2 4.9 8.3 33.7 49.4 7.3-0.9 0.4-68.8 6.8-3v-4.7h-25.5v4.7l9.9 3 0.4 32.5 0.1 9.7-0.4 0.2-5.1-8.4-28.7-41.7h-20.6v4.8l8.4 2.6zm-80.2 7.7h47.6v-19.6h-5l-5.3 13.3h-17.5v-23.3l16.4 1.7v-9.5l-16.4 1.8v-22.3h16.4l4.8 12.4h5v-18.8h-46v4.8l6.2 2.3v50.1l-6.2 2.3zm-54.1-7.1l-6.2 2.3v4.8h26v-4.8l-6.2-2.3v-16.6l4.9-5.6 13.6 22.2-4.9 2.3v4.8h25.6v-4.8l-4.6-2.2-20.3-33 14.5-16.7 6.3-2.8v-4.8h-20.8v4.8l5.3 2.8-13.6 16.7-5.6 7.4-0.4-0.2v-24.4l6.2-2.3v-4.8h-26v4.8l6.2 2.3zm-90.2-21.1h2.8c10.4 0 8.1 32.4 37.8 32.5l1-2.5c-14.6-5-12.7-30.1-28.2-32.8v-0.4c8.6-2.2 14-7.8 14-16.4 0-11.6-8.2-16.5-19-16.5h-28.2v4.8l6.2 2.3v50.1l-6.2 2.3v4.8h26.9v-4.8l-7.1-2.4zm0-6.3v-23.5h4.3c6.1 0 9.4 3.5 9.4 11.2 0 8.1-4.1 12.3-10.6 12.3zm-13-46.1l11.5 12.3h10.5l11.5-12.3-2.4-2.1-13.9 5.7-14.9-5.7zm-36.1-0.6l-7.7 11.3 2.1 2.3 21.7-11-1.1-2.6zm3.4 61.2l4.1 12.9-6.3 2.3v4.8h25.3v-4.8l-4.7-2.3-18.1-57.4h-11.4l-18.1 56.9-4.5 2.9v4.7h18.9v-4.7l-7.4-2.9 3.8-12.4zm-16.6-6.4l4.5-14.3 2.5-9.6h0.5l2.6 9.6 4.6 14.3zm-45.1 26.4c16.6 0 28.1-12.4 28.1-33.1 0-20.8-11.5-31.2-28.1-31.2h-27.6v4.8l6.3 2.3v50.1l-6.3 2.3v4.8zm-7.7-6.4v-51.5h4.8c10 0 16.5 8.2 16.5 24.9 0 16.7-6.5 26.6-16.5 26.6zm-24.8-25.7c0-21.6-13.8-33.3-27.7-33.3-14.1 0-27.8 11.7-27.8 33.3 0 21.5 13.7 33.2 27.8 33.2 13.9 0 27.7-11.7 27.7-33.2zm-14.5 0c0 17.9-6 27.1-13.2 27.1-7.4 0-13.3-9.2-13.3-27.1 0-18 5.9-27.2 13.3-27.2 7.2 0 13.2 9.2 13.2 27.2zm-73.2-25.8h4.2c6.5 0 9.7 3.6 9.7 12.3 0 8.7-2.7 13.7-11 15.5l0.9 3.2c17.2 0 24.3-8.4 24.3-18.8 0-13.1-8.6-18.6-19.9-18.6h-28v4.8l6.2 2.3v50.1l-6.2 2.3v4.8h28.2v-4.8l-8.4-2.4zm-70.7 25.8c0-21.5-13.7-33.2-27.7-33.2-14 0-27.8 11.7-27.8 33.2 0 21.6 13.8 33.2 27.8 33.2 14 0 27.7-11.6 27.7-33.2zm-14.5 0c0 17.9-5.9 27.2-13.2 27.2-7.3 0-13.3-9.3-13.3-27.2 0-17.9 6-27.1 13.3-27.1 7.3 0 13.2 9.2 13.2 27.1z"/></svg>