<svg version="1.2" xmlns="http://www.w3.org/2000/svg" viewBox="0 0 100 36" width="100" height="36"><defs><linearGradient id="P" gradientUnits="userSpaceOnUse"/><linearGradient id="g1" x2="1" href="#P" gradientTransform="matrix(105.399,.217,-0.078,37.848,16.583,11.784)"><stop stop-color="#002f68"/><stop offset=".4" stop-color="#1281ec"/><stop offset="1" stop-color="#013f7e"/></linearGradient><linearGradient id="g2" x2="1" href="#P" gradientTransform="matrix(0,-11.993,66.595,0,82.482,35.48)"><stop stop-color="#d9d9d9"/><stop offset="1" stop-color="#fff"/></linearGradient></defs><style>.a{fill:url(#g1)}.b{fill:url(#g2)}.c{fill:#f6f9ff}.d{fill:#c00}.e{fill:#fff}</style><path fill-rule="evenodd" class="a" d="m35.1 23.6v-23.2h64.8v23.2z"/><path fill-rule="evenodd" class="b" d="m35.1 23.8h64.8v11.7h-64.8z"/><path  d="m89.9 30.7c0.3 0 0.5 0.1 0.7 0.3q0.1 0.1 0.1 0.2c0 0.1-0.1 0.2-0.2 0.3-0.1 0.1-0.4 0.2-0.4 0.2-0.1 0-0.3 0-0.6 0-0.8 0-1-0.3-1.2-0.6h-3.6c0.1 0.4 0.1 0.7 0.4 1 0.3 0.5 0.9 0.8 1 0.9 0.4 0.1 0.9 0.3 1.3 0.3q0.3 0.1 0.7 0.1 0.6 0 1.2 0.1 0.7-0.1 1.3-0.1c0.9-0.1 1.8-0.2 2.5-0.9 0.6-0.6 0.7-1.2 0.7-1.6 0-0.4-0.2-0.8-0.3-0.9-0.4-0.7-1.1-0.9-1.8-1.1l-3.2-0.5c-0.2 0-0.5 0-0.6-0.2 0-0.1 0-0.2 0-0.2q0-0.1 0.1-0.2c0.2-0.2 0.6-0.3 0.8-0.3 0.1 0 1 0 1.3 0.5 0.1 0.1 0.1 0.1 0.1 0.2l3.4 0.1c-0.1-0.4-0.2-0.7-0.4-1.1-0.2-0.2-0.5-0.4-0.6-0.4-0.9-0.7-2.1-0.7-3.2-0.8q-0.5 0-0.9 0-0.5 0-0.9 0.1c-0.7 0.1-1.4 0.2-1.9 0.6-0.1 0.1-0.3 0.2-0.4 0.4-0.3 0.4-0.4 1-0.4 1.2 0 0.7 0.4 1.1 0.6 1.3 0.4 0.3 0.8 0.5 1.3 0.6zm-26.2-4.5v1.7h-4.9v0.8h4v1.8h-4v1h5.2v1.7h-7.9v-7zm8 0q0.3 1.4 0.5 2.7 0.2 0.9 0.3 1.9 0.2-1.2 0.4-2.3 0.3-1.1 0.6-2.3h2l0.9 4.7q0.2-1.1 0.3-2.1 0.3-1.3 0.5-2.6h2.7l-1.8 7h-2.8l-0.9-3.9q-0.2 1-0.4 2.1-0.2 0.9-0.4 1.8h-2.9l-1.7-7zm-24.3 4.3v-4.3h2.5v7h-3.1q-0.4-0.5-0.8-1-0.2-0.4-0.5-0.7-0.2-0.4-0.5-0.8-0.2-0.3-0.4-0.6-0.2-0.3-0.4-0.6-0.3-0.4-0.6-0.8l0.1 4.5h-2.5v-7h3.2z"/><path fill-rule="evenodd" class="c" d="m43.4 20.9h-4.1v-17.8l7.3 1.1c2.6 0.4 4.9 2.2 4.9 6.2 0 4.1-1.9 5.6-4.9 5.4l-3.2-0.2zm4.6-10.6c0-1.6-0.8-2.4-2-2.5l-2.6-0.3v4.5l2.6 0.3c1.2 0.1 2-0.4 2-2z"/><path fill-rule="evenodd" class="c" d="m55.7 20.9h-3.4v-13.2l3.3 0.4v2.4c0.5-1.6 1.7-2.2 3-2 0.3 0 0.7 0.1 0.7 0.1v3.7h-0.9c-1.1-0.1-2.7 0.1-2.7 2.6z"/><path fill-rule="evenodd" class="c" d="m62.7 20.9h-2.9v-12l2.9 0.3zm0-12.7l-2.9-0.4v-3.2l2.9 0.5z"/><path fill-rule="evenodd" class="c" d="m67.9 20.9h-3.8v-11.6h3.7v1.6c0.7-1.2 2-2 3.5-2 1.5 0 2.7 0.5 3.3 2 1-1.3 2.2-2 3.8-2 3.8 0 4.1 3 4.1 5.3v6.7h-3.8v-6.6c0-1.3-0.6-2.1-1.7-2.1-1.6 0-1.8 1.3-1.8 3.3v5.4h-3.8v-6.4c0-1.4-0.4-2.3-1.5-2.3-1.4 0-2 0.8-2 3.3z"/><path fill-rule="evenodd" class="c" d="m88.1 12.8h-4.1q0.1-2.3 2-3.2 1.4-0.7 4-0.7 3.8 0 4.9 1.5 0.7 0.8 0.7 3.1v4.8q0 1.8 0.5 2.6h-4.5q-0.3-0.5-0.2-1.1h-0.1q-1.2 1.4-3.7 1.4-1.9 0-3-0.8-1.2-1-1.2-2.7 0-1.7 1.2-2.6 0.9-0.7 2.7-1 0.9-0.1 1.9-0.2 1.1-0.2 1.7-0.5 0.4-0.2 0.4-0.7 0-1.1-1.5-1.1-0.9 0-1.3 0.4-0.4 0.3-0.4 0.8zm3.2 2.9q-0.5 0.2-1.8 0.5-0.8 0.2-1 0.4-0.5 0.3-0.5 0.9 0 0.5 0.5 0.8 0.4 0.3 0.9 0.3 0.8 0 1.4-0.5 0.5-0.5 0.5-1.3z"/><path fill-rule="evenodd" class="d" d="m33.8 23.2h66.1v0.6h-66.1z"/><path fill-rule="evenodd" class="d" d="m0 0.4h35.1v35.1h-35.1z"/><path class="e" d="m5.6 18c0 2.3 1.9 4.1 4.2 4.1h3.9c0.3 0 0.4-0.2 0.4-0.4v-7.7c0-0.5 0.4-0.9 1-0.9 0.3 0 0.6 0.2 0.8 0.4 0 0.1 1.2 2.1 2.4 4.3 1.2 2.1 2.5 4.2 2.5 4.3q0.1 0.1 0.3 0.1c0.2 0 0.3-0.1 0.3-0.3v-7.9c0-0.5 0.4-0.9 0.9-0.9 0.4 0 0.7 0.2 0.8 0.4 0.1 0.1 1.2 2.1 2.5 4.3 1.2 2.1 2.5 4.2 2.5 4.3q0.1 0.1 0.3 0.1c0.1 0 0.3-0.1 0.3-0.3v-10.2h-1.5v6.1c0 0-2.8-4.9-2.9-5-0.4-0.7-1.2-1.2-2-1.2-1.4 0-2.4 1.1-2.4 2.4v3.8c0 0-2.8-4.9-2.9-5-0.4-0.7-1.2-1.2-2-1.2-1.3 0-2.4 1.1-2.4 2.4v6.2c0 0.2-0.1 0.4-0.4 0.4h-2.4c-1.5 0-2.6-1.2-2.6-2.6 0-1.5 1.1-2.7 2.6-2.7h2v-1.5h-2c-2.3 0-4.2 1.9-4.2 4.2z"/><path class="e" d="m29.3 11.7v10.2c0 0.5-0.4 0.9-0.9 0.9-0.4 0-0.7-0.2-0.8-0.4-0.1-0.1-1.3-2.1-2.5-4.3-1.2-2.1-2.5-4.2-2.5-4.3q-0.1-0.1-0.3-0.1c-0.1 0-0.3 0.1-0.3 0.3v7.9c0 0.5-0.4 0.9-0.9 0.9-0.3 0-0.7-0.2-0.8-0.4 0-0.1-1.2-2.1-2.5-4.3-1.2-2.1-2.4-4.2-2.5-4.3q-0.1-0.1-0.2-0.1c-0.2 0-0.4 0.1-0.4 0.3v7.7c0 0.6-0.4 1-1 1h-3.9c-2.6 0-4.8-2.1-4.8-4.7 0-2.7 2.2-4.8 4.8-4.8h2v-1.5h-2c-3.5 0-6.3 2.8-6.3 6.3 0 3.4 2.8 6.2 6.3 6.2h4c1.5 0 2.4-0.8 2.4-2.5v-3.6c0 0 2.9 4.9 3 5 0.4 0.7 1.1 1.2 2 1.2 1.3 0 2.3-1.1 2.3-2.4v-3.8c0 0 2.8 4.9 2.9 5 0.4 0.7 1.2 1.2 2 1.2 1.3 0 2.4-1.1 2.4-2.4v-10.2z"/></svg>