<?xml version="1.0" encoding="UTF-8"?><svg id="a" xmlns="http://www.w3.org/2000/svg" width="2220.163" height="410.76" viewBox="0 0 2220.163 410.76"><defs><style>.b{fill:none;}.c{fill:#fff;}.d{fill:#ffd60a;}</style></defs><line class="b" x1="112.771" y1="6.28" x2="114.362" y2="4.706"/><path class="c" d="M388.508,286.839l14.758-33.125c18.366,14.758,47.555,25.253,75.76,25.253,35.748,0,50.835-12.791,50.835-29.845,0-49.523-136.434-17.054-136.434-102.325,0-37.06,29.517-68.545,92.486-68.545,27.549,0,56.41,7.215,76.416,20.334l-13.447,33.125c-20.662-12.135-43.291-18.038-63.297-18.038-35.42,0-49.851,13.775-49.851,31.157,0,48.867,136.106,17.054,136.106,101.341,0,36.732-29.845,68.217-92.814,68.217-35.748,0-71.496-11.151-90.519-27.549Z"/><path class="c" d="M774.196,236.66h-137.418c4.919,25.581,26.237,41.98,56.738,41.98,19.678,0,35.092-6.231,47.555-19.022l21.974,25.253c-15.742,18.694-40.34,28.533-70.513,28.533-58.706,0-96.75-37.716-96.75-89.863s38.372-89.535,90.519-89.535,88.551,35.748,88.551,90.519c0,3.28-.328,8.199-.656,12.135h0ZM636.45,209.439h99.374c-3.28-25.253-22.63-42.636-49.523-42.636s-45.915,17.054-49.851,42.636h0Z"/><path class="c" d="M814.207,67.758h40.996v243.351h-40.996V67.758Z"/><path class="c" d="M908.973,67.758h40.996v243.351h-40.996V67.758Z"/><path class="c" d="M998.18,82.516c0-13.775,11.151-24.597,26.237-24.597s26.237,10.167,26.237,23.614c0,14.43-10.823,25.581-26.237,25.581s-26.237-10.823-26.237-24.597ZM1003.755,135.975h40.996v175.134h-40.996v-175.134Z"/><path class="c" d="M1271.047,210.751v100.357h-40.996v-95.11c0-31.157-15.414-46.243-41.652-46.243-29.189,0-48.867,17.71-48.867,52.802v88.551h-40.996v-175.134h39.028v22.63c13.447-16.07,34.764-24.597,60.346-24.597,41.98,0,73.136,23.941,73.136,76.744Z"/><path class="c" d="M1498.639,135.975v148.568c0,63.625-33.124,92.486-94.454,92.486-32.797,0-65.265-8.527-85.271-24.925l18.366-30.829c15.414,12.791,40.34,20.99,64.609,20.99,38.7,0,55.754-17.71,55.754-53.13v-9.183c-14.431,15.742-35.092,23.286-58.706,23.286-50.179,0-88.551-34.108-88.551-84.943s38.372-84.287,88.551-84.287c24.597,0,46.243,7.871,60.674,25.253v-23.286h39.028ZM1458.299,218.294c0-29.517-22.302-49.523-53.13-49.523s-53.458,20.006-53.458,49.523,22.302,50.179,53.458,50.179,53.13-20.334,53.13-50.179Z"/><path class="c" d="M1754.78,81.532v229.576h-23.941v-105.933h-143.649v105.933h-24.27V81.532h24.27v102.325h143.649v-102.325h23.941Z"/><path class="c" d="M1980.092,138.598v172.51h-22.302v-31.485c-12.135,20.99-34.436,33.125-61.986,33.125-43.947,0-72.808-24.597-72.808-74.12v-100.03h23.285v97.734c0,36.732,19.022,55.426,51.819,55.426,36.076,0,58.706-23.286,58.706-62.641v-90.519h23.286Z"/><path class="c" d="M2220.163,224.853c0,52.147-36.732,87.895-85.927,87.895-28.533,0-52.474-12.463-66.577-35.748v34.108h-22.302V67.758h23.285v103.637c14.431-22.302,38.044-34.108,65.593-34.108,49.195,0,85.927,35.42,85.927,87.567h0ZM2196.877,224.853c0-40.34-27.877-67.233-64.281-67.233s-64.281,26.893-64.281,67.233,27.549,67.233,64.281,67.233,64.281-26.893,64.281-67.233Z"/><polygon class="d" points="117.1 2.279 117.1 128.776 0 245.859 0 117.1 113.247 3.854 117.133 .066 117.1 2.279"/><polygon class="d" points="117.084 167.18 117.084 293.677 0 410.76 0 282.001 117.116 164.885 117.084 167.18"/><polygon class="d" points="257.141 2.263 257.141 128.776 140.058 245.859 140.058 117.1 257.158 0 257.141 2.263"/><polygon class="d" points="257.141 167.18 257.141 293.677 140.058 410.76 140.058 282.001 257.158 164.901 257.141 167.18"/></svg>