<svg version="1.2" xmlns="http://www.w3.org/2000/svg" viewBox="0 0 3899 716" width="3899" height="716"><style>.a{fill:#dc1c2e}.b{fill:#003da5}</style><path fill-rule="evenodd" class="a" d="m411.4 451.9l158.3 263.3h-182.3l-136.2-231.7h-91.2v231.7h-159.2v-710.4h280.7c86.1 0 155.9 23.6 202.8 68.2 41.3 39.4 63.1 96.5 63.1 165.1v4.2c0 123.9-73.1 182.4-136 209.6zm-144.7-309.6h-106.7v207h109.9c73.4 0 117.3-38.5 117.3-102.8v-1.4c0-67.2-41.7-102.8-120.5-102.8zm2678-141.8l267 714.7h-164.9l-54.8-153h-250l-53.9 153h-160.7l267.3-714.6zm-77.2 209.4l-76.9 217.5h153.1zm1030.7 505.2h-181.3l-133.3-238.3-134.3 238.3h-177.2l220.4-361.4-210.9-349h181.2l123.8 225 126-225h177l-212.9 347.1zm-2809.3-137.5l-72.7 137.5h-299.1v-710.4h482.2v137.5h-324.2v146.6h285.2v137.5h-285.2v151.3zm1316.9-572.9v710.4h-156v-441.7l-169.3 221.3h-6.7l-0.9-1.5-167.5-218v439.9h-154.8v-400.9l163.4-309.5h1.9l162.8 230.2 160.9-230.2z"/><path class="b" d="m1554.5 4.8l-375.1 710.4h193.3l375.1-710.4z"/></svg>